<svg width="204.000000" height="204.000000" viewBox="0 0 204 204" fill="none" xmlns="http://www.w3.org/2000/svg" xmlns:xlink="http://www.w3.org/1999/xlink">
	<desc>
			Created with Pixso.
	</desc>
	<defs/>
	<rect id="inline" x="16.000000" y="16.000000" rx="8.000000" width="172.000000" height="172.000000" fill="#414549" fill-opacity="0"/>
	<rect id="inline" x="8.000000" y="8.000000" rx="8.000000" width="188.000000" height="188.000000" stroke="#F08A0E" stroke-opacity="1.000000" stroke-width="16.000000"/>
	<path id="kinoko" d="M44.72 65.38L59.1 65.38L59.1 76.55L88.98 76.55L88.98 65.38L115.01 65.38L115.01 76.55L144.77 76.55L144.77 65.38L159.15 65.38L159.15 56.96L144.77 56.96L144.77 45.55L115.01 45.55L115.01 56.96L88.98 56.96L88.98 45.55L59.1 45.55L59.1 56.96L44.72 56.96L44.72 65.38ZM98.79 164.7L84.13 139.91L94.94 123.17L94.94 96.65Q94.94 95.02 94.36 93.63Q93.78 92.27 92.64 91.14Q91.29 89.78 89.66 89.23Q88.52 88.84 87.25 88.84L70.12 88.84L70.12 79.03L49.41 79.03L49.41 88.84L44.45 88.84L44.45 97.37L49.41 97.37L49.41 122.81L59.7 139.67L42.96 164.7L68.03 164.7L71.48 159.25L74.84 164.7L98.79 164.7ZM98.79 164.7L158.3 164.7L158.3 122.68Q158.3 121.05 157.72 119.67Q157.14 118.3 156 117.17Q154.65 115.82 153.02 115.26Q151.88 114.87 150.61 114.87L142.92 114.87L142.92 98.98L159.55 98.98L159.55 90.44L142.92 90.44L142.92 79.03L114.26 79.03L114.26 90.44L97.54 90.44L97.54 98.98L114.26 98.98L114.26 114.87L98.79 114.87L98.79 164.7ZM75.32 116.24L72.6 120.32L70.12 116.24L70.12 97.37L72.72 97.37Q74.02 97.37 74.67 98.03Q75.32 98.68 75.32 99.98L75.32 116.24ZM133.22 124.06Q133.87 124.71 133.87 126.01L133.87 156.41L123.34 156.41L123.34 123.41L131.27 123.41Q132.57 123.41 133.22 124.06Z" fill="#F08A0E" fill-opacity="1.000000" fill-rule="evenodd"/>
</svg>
