<svg width="886.000000" height="241.000000" viewBox="0 0 886 241" fill="none" xmlns="http://www.w3.org/2000/svg" xmlns:xlink="http://www.w3.org/1999/xlink">
	<desc>
			Created with Pixso.
	</desc>
	<defs>
		<clipPath id="clip21_3">
			<rect id="hole" width="180.000000" height="201.600006" transform="translate(42.000000 20.000000)" fill="white" fill-opacity="0"/>
		</clipPath>
		<clipPath id="clip21_2">
			<rect id="logo" rx="16.000000" width="878.000000" height="233.000000" transform="translate(4.000000 4.000000)" fill="white" fill-opacity="0"/>
		</clipPath>
	</defs>
	<rect id="logo" rx="16.000000" width="878.000000" height="233.000000" transform="translate(4.000000 4.000000)" fill="#0E0E0E" fill-opacity="1.000000"/>
	<g clip-path="url(#clip21_2)">
		<g clip-path="url(#clip21_3)">
			<rect id="hole" x="42.000000" y="20.000000" width="180.000000" height="201.600006" fill="#FFFFFF" fill-opacity="0"/>
			<mask id="mask21_7" mask-type="alpha" maskUnits="userSpaceOnUse" x="42.000000" y="20.000000" width="180.000000" height="201.599976">
				<rect id="hole" x="42.000000" y="20.000000" width="180.000000" height="201.600006" fill="#000000" fill-opacity="1.000000"/>
			</mask>
			<g mask="url(#mask21_7)">
				<path id="01" d="M41.99 20L57.11 90.56L41.99 122.24L41.99 20Z" fill="#E91111" fill-opacity="0.500000" fill-rule="evenodd"/>
				<path id="02" d="M57.11 90.56L67.92 125.12L41.99 122.24L57.11 90.56Z" fill="#FFFFFF" fill-opacity="0.500000" fill-rule="evenodd"/>
				<path id="03" d="M41.99 122.24L67.92 125.12L70.79 158.96L41.99 122.24Z" fill="#FFFFFF" fill-opacity="0.500000" fill-rule="evenodd"/>
				<path id="04" d="M41.99 122.24L70.79 158.96L56.39 176.96L41.99 122.24Z" fill="#FFFFFF" fill-opacity="0.500000" fill-rule="evenodd"/>
				<path id="05" d="M67.91 125.12L84.47 144.56L70.79 158.96L67.91 125.12Z" fill="#FFFFFF" fill-opacity="0.500000" fill-rule="evenodd"/>
				<path id="06" d="M84.47 144.56L91.67 165.44L70.79 158.96L84.47 144.56Z" fill="#FFFFFF" fill-opacity="0.500000" fill-rule="evenodd"/>
				<path id="07" d="M70.79 158.96L91.67 165.44L88.79 187.76L70.79 158.96Z" fill="#FFFFFF" fill-opacity="0.500000" fill-rule="evenodd"/>
				<path id="08" d="M56.39 176.96L70.79 158.96L88.79 187.76L56.39 176.96Z" fill="#FFFFFF" fill-opacity="0.500000" fill-rule="evenodd"/>
				<path id="09" d="M222 20L206.88 90.56L222 122.24L222 20Z" fill="#E91111" fill-opacity="0.500000" fill-rule="evenodd"/>
				<path id="10" d="M206.88 90.56L196.08 125.12L222 122.24L206.88 90.56Z" fill="#FFFFFF" fill-opacity="0.500000" fill-rule="evenodd"/>
				<path id="11" d="M222 122.24L196.08 125.12L193.2 158.96L222 122.24Z" fill="#FFFFFF" fill-opacity="0.500000" fill-rule="evenodd"/>
				<path id="12" d="M222 122.24L193.2 158.96L207.6 176.96L222 122.24Z" fill="#FFFFFF" fill-opacity="0.500000" fill-rule="evenodd"/>
				<path id="13" d="M196.08 125.12L179.52 144.56L193.2 158.96L196.08 125.12Z" fill="#FFFFFF" fill-opacity="0.500000" fill-rule="evenodd"/>
				<path id="14" d="M179.52 144.56L172.32 165.44L193.2 158.96L179.52 144.56Z" fill="#FFFFFF" fill-opacity="0.500000" fill-rule="evenodd"/>
				<path id="15" d="M193.2 158.96L172.32 165.44L175.2 187.76L193.2 158.96Z" fill="#FFFFFF" fill-opacity="0.500000" fill-rule="evenodd"/>
				<path id="16" d="M207.6 176.96L193.2 158.96L175.2 187.76L207.6 176.96Z" fill="#FFFFFF" fill-opacity="0.500000" fill-rule="evenodd"/>
				<path id="17" d="M84.47 144.56L132 156.08L91.67 165.44L84.47 144.56Z" fill="#FFFFFF" fill-opacity="0.500000" fill-rule="evenodd"/>
				<path id="18" d="M91.67 165.44L132 156.08L88.79 187.76L91.67 165.44Z" fill="#FFFFFF" fill-opacity="0.500000" fill-rule="evenodd"/>
				<path id="19" d="M88.79 187.76L132 156.08L132 205.04L88.79 187.76Z" fill="#FFFFFF" fill-opacity="0.500000" fill-rule="evenodd"/>
				<path id="20" d="M111.12 221.6L88.79 187.76L132 205.04L111.12 221.6Z" fill="#FFFFFF" fill-opacity="0.500000" fill-rule="evenodd"/>
				<path id="21" d="M111.12 221.6L132 205.04L152.88 221.6L111.12 221.6Z" fill="#FFFFFF" fill-opacity="0.500000" fill-rule="evenodd"/>
				<path id="22" d="M152.88 221.6L175.2 187.76L132 205.04L152.88 221.6Z" fill="#FFFFFF" fill-opacity="0.500000" fill-rule="evenodd"/>
				<path id="23" d="M175.2 187.76L132 156.08L132 205.04L175.2 187.76Z" fill="#FFFFFF" fill-opacity="0.500000" fill-rule="evenodd"/>
				<path id="24" d="M172.32 165.44L132 156.08L175.2 187.76L172.32 165.44Z" fill="#FFFFFF" fill-opacity="0.500000" fill-rule="evenodd"/>
				<path id="25" d="M179.52 144.56L132 156.08L172.32 165.44L179.52 144.56Z" fill="#FFFFFF" fill-opacity="0.500000" fill-rule="evenodd"/>
			</g>
		</g>
		<path id="REDHORN" d="M208.27 122.45L212.84 87.88L137.96 87.88L141.44 92.45L133.39 155.79L156.44 155.79L159.93 130.48L182.96 155.79L208.27 155.79L184.04 130.48L199.04 130.48Q200.54 130.48 201.92 130.06Q202.18 129.98 202.44 129.89Q203.66 129.43 204.7 128.72Q205.06 128.47 205.4 128.19Q206.2 127.53 206.79 126.73Q207.18 126.2 207.48 125.61Q207.92 124.79 208.11 123.91Q208.27 123.2 208.27 122.45ZM426.66 114.27L430.15 87.88L402.44 87.88L407.12 91.25L397.87 155.79L420.92 155.79L425.11 125.79L452.01 125.79L447.44 155.79L470.46 155.79L479.72 87.88L453.21 87.88L456.66 92.45L453.44 114.27L426.66 114.27ZM160.98 118.96L163.39 99.39L188.73 99.39L186.44 118.96L160.98 118.96Z" fill="#E91111" fill-opacity="1.000000" fill-rule="evenodd"/>
		<path id="REDHORN" d="M293.97 99.39L295.02 87.88L229.4 87.88L232.88 92.45L223.63 155.79L288.2 155.79L289.28 144.27L248.97 144.27L251.22 125.79L288.2 125.79L289.28 114.27L253.63 114.27L255.91 99.39L293.97 99.39ZM378.91 147.76L387.08 87.88L309.8 87.88L313.28 92.45L305.23 155.79L369.8 155.79Q371.27 155.79 372.63 155.38Q374.47 154.83 376.1 153.53Q377.65 152.27 378.34 150.64Q378.91 149.32 378.91 147.76ZM566.19 88.38Q564.88 87.88 563.37 87.88L498.8 87.88L490.77 147.76Q490.32 149.26 490.56 150.64Q490.59 150.8 490.62 150.95Q490.89 151.99 491.45 152.83Q491.69 153.2 492 153.53Q492.12 153.66 492.25 153.78Q493.2 154.66 494.46 155.2Q494.62 155.27 494.79 155.33Q496.11 155.79 497.6 155.79L562.17 155.79L570.19 95.91Q570.66 94.12 570.31 92.68Q570.15 92.02 569.84 91.43Q569.48 90.74 568.93 90.16Q568.64 89.85 568.31 89.58Q567.5 88.91 566.47 88.49Q566.33 88.43 566.19 88.38ZM656.11 122.45L660.68 87.88L585.8 87.88L589.28 92.45L581.23 155.79L604.28 155.79L607.77 130.48L630.8 155.79L656.11 155.79L631.88 130.48L646.88 130.48Q648.38 130.48 649.76 130.06Q650.02 129.98 650.28 129.89Q651.5 129.43 652.54 128.72Q652.9 128.47 653.24 128.19Q654.03 127.53 654.63 126.73Q655.02 126.2 655.32 125.61Q655.76 124.79 655.95 123.91Q656.11 123.2 656.11 122.45ZM727.86 130.48L703.75 87.88L676.04 87.88L680.72 92.45L671.47 155.79L692.24 155.79L698.01 114.27L721.04 155.79L744.06 155.79L753.32 87.88L733.63 87.88L727.86 130.48ZM329.48 144.27L336.31 99.39L364.02 99.39L357.08 144.27L329.48 144.27ZM513.8 144.27L519.57 99.39L547.17 99.39L540.31 144.27L513.8 144.27ZM608.82 118.96L611.23 99.39L636.57 99.39L634.28 118.96L608.82 118.96Z" fill="#FFFFFF" fill-opacity="1.000000" fill-rule="evenodd"/>
		<path id="Usami.kinoko" d="M736.48 182L737.7 173.1L730.65 173.1L731.55 174.03L728.8 193.07L734.94 193.07L735.55 189.07L738.62 193.07L745.37 193.07L738.62 185.07L747.23 179.25L740.48 179.25L736.48 182ZM807.2 182L808.42 173.1L801.37 173.1L802.27 174.03L799.52 193.07L805.66 193.07L806.27 189.07L809.34 193.07L816.09 193.07L809.34 185.07L817.95 179.25L811.2 179.25L807.2 182ZM627.58 190L629.72 174.96L622.65 174.96L623.58 175.86L621.43 190.93Q621.43 191.81 621.84 192.4Q621.87 192.44 621.89 192.47Q622.01 192.62 622.16 192.74Q622.6 193.07 623.29 193.07L640.79 193.07L643.26 174.96L635.87 174.96L637.11 175.86L634.94 190L627.58 190ZM711.83 178.64L717.69 178.64L718.3 174.96L712.15 174.96L711.83 178.64ZM750.33 178.64L756.19 178.64L756.8 174.96L750.65 174.96L750.33 178.64ZM655.8 187.86L655.51 190L647.51 190L646.59 188.78L645.98 193.07L658.27 193.07Q658.55 193.07 658.82 193.02Q659.43 192.89 659.99 192.47Q660.49 192.1 660.76 191.6Q660.93 191.29 661.02 190.93L661.66 184.78L652.73 184.78L653.05 182.64L656.73 182.64L656.64 183.54L661.95 183.54L662.56 179.57L647.83 179.57L646.59 187.86L655.8 187.86ZM672.48 182.64L675.74 182.64L675.26 185.07L666.05 185.07L665.12 190.93Q665.12 191.81 665.53 192.4Q665.55 192.44 665.58 192.47Q665.7 192.63 665.86 192.75Q666.29 193.07 666.97 193.07L681.41 193.07L680.16 191.54L682.02 179.57L666.97 179.57L666.05 183.86L672.19 183.86L672.48 182.64ZM705.31 193.07L707.13 179.57L685.62 179.57L686.26 180.46L684.41 193.07L689.94 193.07L691.55 182.64L693.98 182.64L692.41 193.07L697.31 193.07L698.84 182.64L701.31 182.64L699.77 193.07L705.31 193.07ZM715.83 193.07L717.69 179.57L710.62 179.57L711.54 180.46L709.69 193.07L715.83 193.07ZM754.33 193.07L756.19 179.57L749.12 179.57L750.04 180.46L748.19 193.07L754.33 193.07ZM775.33 193.07L777.18 179.57L760.29 179.57L761.21 180.46L759.36 193.07L765.5 193.07L767.04 182.64L770.72 182.64L769.18 193.07L775.33 193.07ZM795.99 179.81Q795.62 179.57 795.1 179.57L781.27 179.57L779.74 190.93Q779.74 191.81 780.15 192.4Q780.18 192.44 780.2 192.47Q780.33 192.63 780.48 192.75Q780.91 193.07 781.59 193.07L795.42 193.07L796.95 182Q796.95 181.37 796.74 180.82Q796.64 180.56 796.49 180.32Q796.29 179.99 795.99 179.81ZM835.16 179.81Q834.79 179.57 834.27 179.57L820.44 179.57L818.91 190.93Q818.91 191.81 819.32 192.4Q819.34 192.44 819.37 192.47Q819.49 192.63 819.65 192.75Q820.08 193.07 820.76 193.07L834.59 193.07L836.12 182Q836.12 181.37 835.9 180.82Q835.81 180.56 835.66 180.32Q835.45 179.99 835.16 179.81ZM785.88 190L787.1 182.64L790.81 182.64L789.56 190L785.88 190ZM825.05 190L826.27 182.64L829.98 182.64L828.73 190L825.05 190ZM671.26 190L671.58 188.14L674.65 188.14L674.33 190L671.26 190ZM726.24 189.39L721.37 189.39L720.86 193.04L725.72 193.04L726.24 189.39Z" fill="#D1D0D0" fill-opacity="1.000000" fill-rule="evenodd"/>
	</g>
	<rect id="logo" rx="16.000000" width="878.000000" height="233.000000" transform="translate(4.000000 4.000000)" stroke="#FFFFFF" stroke-opacity="1.000000" stroke-width="8.000000"/>
</svg>
